<mxfile modified="2023-08-09T15:22:25.634Z" host="app.diagrams.net" agent="Mozilla/5.0 (Macintosh; Intel Mac OS X 10.15; rv:109.0) Gecko/20100101 Firefox/115.0" etag="YGIH3RLqzecBVD6Q3Va2" version="21.6.7" type="github">
  <diagram id="1JJ-UvxjRfw-XplDersZ" name="Page-1">
    <mxGraphModel dx="954" dy="617" grid="1" gridSize="10" guides="1" tooltips="1" connect="1" arrows="1" fold="1" page="1" pageScale="1" pageWidth="1169" pageHeight="827" math="0" shadow="0">
      <root>
        <mxCell id="0" />
        <mxCell id="1" parent="0" />
        <mxCell id="MUZQk2IL9fI0bO0C1k1g-11" style="edgeStyle=orthogonalEdgeStyle;rounded=0;orthogonalLoop=1;jettySize=auto;html=1;" parent="1" source="MUZQk2IL9fI0bO0C1k1g-1" target="MUZQk2IL9fI0bO0C1k1g-2" edge="1">
          <mxGeometry relative="1" as="geometry">
            <Array as="points">
              <mxPoint x="540" y="170" />
              <mxPoint x="540" y="170" />
            </Array>
          </mxGeometry>
        </mxCell>
        <mxCell id="MUZQk2IL9fI0bO0C1k1g-1" value="" style="sketch=0;pointerEvents=1;shadow=0;dashed=0;html=1;strokeColor=none;fillColor=#505050;labelPosition=center;verticalLabelPosition=bottom;verticalAlign=top;outlineConnect=0;align=center;shape=mxgraph.office.concepts.application_generic;" parent="1" vertex="1">
          <mxGeometry x="474" y="30" width="120" height="80" as="geometry" />
        </mxCell>
        <mxCell id="MUZQk2IL9fI0bO0C1k1g-12" style="edgeStyle=orthogonalEdgeStyle;rounded=0;orthogonalLoop=1;jettySize=auto;html=1;" parent="1" source="MUZQk2IL9fI0bO0C1k1g-2" target="MUZQk2IL9fI0bO0C1k1g-1" edge="1">
          <mxGeometry relative="1" as="geometry">
            <Array as="points">
              <mxPoint x="520" y="170" />
              <mxPoint x="520" y="170" />
            </Array>
          </mxGeometry>
        </mxCell>
        <mxCell id="MUZQk2IL9fI0bO0C1k1g-17" style="edgeStyle=orthogonalEdgeStyle;rounded=0;orthogonalLoop=1;jettySize=auto;html=1;" parent="1" source="MUZQk2IL9fI0bO0C1k1g-2" target="MUZQk2IL9fI0bO0C1k1g-6" edge="1">
          <mxGeometry relative="1" as="geometry">
            <Array as="points">
              <mxPoint x="690" y="282" />
            </Array>
          </mxGeometry>
        </mxCell>
        <mxCell id="MUZQk2IL9fI0bO0C1k1g-18" style="edgeStyle=orthogonalEdgeStyle;rounded=0;orthogonalLoop=1;jettySize=auto;html=1;" parent="1" source="MUZQk2IL9fI0bO0C1k1g-2" target="MUZQk2IL9fI0bO0C1k1g-5" edge="1">
          <mxGeometry relative="1" as="geometry">
            <Array as="points">
              <mxPoint x="557" y="370" />
              <mxPoint x="557" y="370" />
            </Array>
          </mxGeometry>
        </mxCell>
        <mxCell id="MUZQk2IL9fI0bO0C1k1g-21" style="edgeStyle=orthogonalEdgeStyle;rounded=0;orthogonalLoop=1;jettySize=auto;html=1;" parent="1" source="MUZQk2IL9fI0bO0C1k1g-2" target="MUZQk2IL9fI0bO0C1k1g-4" edge="1">
          <mxGeometry relative="1" as="geometry" />
        </mxCell>
        <mxCell id="MUZQk2IL9fI0bO0C1k1g-2" value="" style="sketch=0;pointerEvents=1;shadow=0;dashed=0;html=1;strokeColor=none;fillColor=#505050;labelPosition=center;verticalLabelPosition=bottom;verticalAlign=top;outlineConnect=0;align=center;shape=mxgraph.office.servers.application_server;" parent="1" vertex="1">
          <mxGeometry x="513.5" y="230" width="93" height="104" as="geometry" />
        </mxCell>
        <mxCell id="MUZQk2IL9fI0bO0C1k1g-16" style="edgeStyle=orthogonalEdgeStyle;rounded=0;orthogonalLoop=1;jettySize=auto;html=1;" parent="1" source="MUZQk2IL9fI0bO0C1k1g-4" target="MUZQk2IL9fI0bO0C1k1g-2" edge="1">
          <mxGeometry relative="1" as="geometry">
            <Array as="points">
              <mxPoint x="390" y="260" />
            </Array>
          </mxGeometry>
        </mxCell>
        <mxCell id="MUZQk2IL9fI0bO0C1k1g-4" value="" style="sketch=0;pointerEvents=1;shadow=0;dashed=0;html=1;strokeColor=none;fillColor=#505050;labelPosition=center;verticalLabelPosition=bottom;verticalAlign=top;outlineConnect=0;align=center;shape=mxgraph.office.devices.workstation;" parent="1" vertex="1">
          <mxGeometry x="380" y="490" width="53" height="56" as="geometry" />
        </mxCell>
        <mxCell id="MUZQk2IL9fI0bO0C1k1g-19" style="edgeStyle=orthogonalEdgeStyle;rounded=0;orthogonalLoop=1;jettySize=auto;html=1;" parent="1" source="MUZQk2IL9fI0bO0C1k1g-5" target="MUZQk2IL9fI0bO0C1k1g-2" edge="1">
          <mxGeometry relative="1" as="geometry">
            <Array as="points">
              <mxPoint x="530" y="518" />
            </Array>
          </mxGeometry>
        </mxCell>
        <mxCell id="MUZQk2IL9fI0bO0C1k1g-5" value="" style="sketch=0;pointerEvents=1;shadow=0;dashed=0;html=1;strokeColor=none;fillColor=#505050;labelPosition=center;verticalLabelPosition=bottom;verticalAlign=top;outlineConnect=0;align=center;shape=mxgraph.office.devices.workstation;" parent="1" vertex="1">
          <mxGeometry x="531" y="490" width="53" height="56" as="geometry" />
        </mxCell>
        <mxCell id="MUZQk2IL9fI0bO0C1k1g-14" style="edgeStyle=orthogonalEdgeStyle;rounded=0;orthogonalLoop=1;jettySize=auto;html=1;" parent="1" source="MUZQk2IL9fI0bO0C1k1g-6" target="MUZQk2IL9fI0bO0C1k1g-2" edge="1">
          <mxGeometry relative="1" as="geometry">
            <Array as="points">
              <mxPoint x="700" y="270" />
            </Array>
          </mxGeometry>
        </mxCell>
        <mxCell id="MUZQk2IL9fI0bO0C1k1g-6" value="" style="sketch=0;pointerEvents=1;shadow=0;dashed=0;html=1;strokeColor=none;fillColor=#505050;labelPosition=center;verticalLabelPosition=bottom;verticalAlign=top;outlineConnect=0;align=center;shape=mxgraph.office.devices.workstation;" parent="1" vertex="1">
          <mxGeometry x="680" y="490" width="53" height="56" as="geometry" />
        </mxCell>
        <mxCell id="3ATYLjNT14vbEUXNDDyD-2" value="" style="whiteSpace=wrap;html=1;aspect=fixed;" vertex="1" parent="1">
          <mxGeometry x="40" y="200" width="240" height="240" as="geometry" />
        </mxCell>
        <mxCell id="3ATYLjNT14vbEUXNDDyD-7" style="edgeStyle=orthogonalEdgeStyle;rounded=0;orthogonalLoop=1;jettySize=auto;html=1;exitX=0.5;exitY=1;exitDx=0;exitDy=0;entryX=0.5;entryY=0;entryDx=0;entryDy=0;" edge="1" parent="1" source="3ATYLjNT14vbEUXNDDyD-3" target="3ATYLjNT14vbEUXNDDyD-6">
          <mxGeometry relative="1" as="geometry" />
        </mxCell>
        <mxCell id="3ATYLjNT14vbEUXNDDyD-8" style="edgeStyle=orthogonalEdgeStyle;rounded=0;orthogonalLoop=1;jettySize=auto;html=1;entryX=1;entryY=0.5;entryDx=0;entryDy=0;" edge="1" parent="1" source="3ATYLjNT14vbEUXNDDyD-3" target="3ATYLjNT14vbEUXNDDyD-4">
          <mxGeometry relative="1" as="geometry">
            <Array as="points">
              <mxPoint x="223" y="325" />
              <mxPoint x="223" y="235" />
            </Array>
          </mxGeometry>
        </mxCell>
        <mxCell id="3ATYLjNT14vbEUXNDDyD-9" value="Reapeat x times" style="edgeLabel;html=1;align=center;verticalAlign=middle;resizable=0;points=[];" vertex="1" connectable="0" parent="3ATYLjNT14vbEUXNDDyD-8">
          <mxGeometry x="0.115" y="-1" relative="1" as="geometry">
            <mxPoint as="offset" />
          </mxGeometry>
        </mxCell>
        <mxCell id="3ATYLjNT14vbEUXNDDyD-3" value="Success" style="rhombus;whiteSpace=wrap;html=1;" vertex="1" parent="1">
          <mxGeometry x="120" y="290" width="70" height="70" as="geometry" />
        </mxCell>
        <mxCell id="3ATYLjNT14vbEUXNDDyD-5" style="edgeStyle=orthogonalEdgeStyle;rounded=0;orthogonalLoop=1;jettySize=auto;html=1;exitX=0.5;exitY=1;exitDx=0;exitDy=0;entryX=0.5;entryY=0;entryDx=0;entryDy=0;" edge="1" parent="1" source="3ATYLjNT14vbEUXNDDyD-4" target="3ATYLjNT14vbEUXNDDyD-3">
          <mxGeometry relative="1" as="geometry" />
        </mxCell>
        <mxCell id="3ATYLjNT14vbEUXNDDyD-4" value="Update Node" style="rounded=0;whiteSpace=wrap;html=1;" vertex="1" parent="1">
          <mxGeometry x="107.5" y="220" width="95" height="30" as="geometry" />
        </mxCell>
        <mxCell id="3ATYLjNT14vbEUXNDDyD-6" value="Inform Client success" style="rounded=0;whiteSpace=wrap;html=1;" vertex="1" parent="1">
          <mxGeometry x="97.5" y="380" width="115" height="40" as="geometry" />
        </mxCell>
        <mxCell id="3ATYLjNT14vbEUXNDDyD-11" value="" style="whiteSpace=wrap;html=1;aspect=fixed;" vertex="1" parent="1">
          <mxGeometry x="750" y="200" width="140" height="140" as="geometry" />
        </mxCell>
        <mxCell id="3ATYLjNT14vbEUXNDDyD-12" value="Check node status" style="rounded=0;whiteSpace=wrap;html=1;" vertex="1" parent="1">
          <mxGeometry x="765" y="230" width="110" height="40" as="geometry" />
        </mxCell>
        <mxCell id="3ATYLjNT14vbEUXNDDyD-13" value="" style="endArrow=none;dashed=1;html=1;dashPattern=1 3;strokeWidth=2;rounded=0;" edge="1" parent="1">
          <mxGeometry width="50" height="50" relative="1" as="geometry">
            <mxPoint x="530" y="330" as="sourcePoint" />
            <mxPoint x="580" y="280" as="targetPoint" />
          </mxGeometry>
        </mxCell>
        <mxCell id="3ATYLjNT14vbEUXNDDyD-14" value="" style="endArrow=none;dashed=1;html=1;dashPattern=1 3;strokeWidth=2;rounded=0;" edge="1" parent="1">
          <mxGeometry width="50" height="50" relative="1" as="geometry">
            <mxPoint x="530" y="330" as="sourcePoint" />
            <mxPoint x="580" y="280" as="targetPoint" />
          </mxGeometry>
        </mxCell>
        <mxCell id="3ATYLjNT14vbEUXNDDyD-15" value="" style="endArrow=none;dashed=1;html=1;dashPattern=1 3;strokeWidth=2;rounded=0;" edge="1" parent="1">
          <mxGeometry width="50" height="50" relative="1" as="geometry">
            <mxPoint x="80" y="160" as="sourcePoint" />
            <mxPoint x="1000" y="160" as="targetPoint" />
          </mxGeometry>
        </mxCell>
        <mxCell id="3ATYLjNT14vbEUXNDDyD-17" value="" style="endArrow=none;dashed=1;html=1;dashPattern=1 3;strokeWidth=2;rounded=0;" edge="1" parent="1">
          <mxGeometry width="50" height="50" relative="1" as="geometry">
            <mxPoint x="70" y="460" as="sourcePoint" />
            <mxPoint x="1012" y="460" as="targetPoint" />
          </mxGeometry>
        </mxCell>
      </root>
    </mxGraphModel>
  </diagram>
</mxfile>
